<svg xmlns="http://www.w3.org/2000/svg" viewBox="0 0 58 58"><path d="M3.771 31c3.573 0 7.051-.978 10.056-2.828C16.134 26.751 18.96 26 22 26s5.866.751 8.174 2.172A19.163 19.163 0 0 0 40.23 31h17.615c.027 0 .05.013.077.016.046-.667.078-1.338.078-2.016 0-.678-.032-1.349-.078-2.016-.026.002-.049.016-.076.016H39a1 1 0 1 1 0-2h18.719a28.9 28.9 0 0 0-.846-4.003c-.091.027-.181.057-.28.057H27a1 1 0 1 1 0-2h29.248a28.893 28.893 0 0 0-1.9-4.139.97.97 0 0 1-.49.146H48a1 1 0 1 1 0-2h5.223C48.036 5.194 39.127 0 29 0 21.265 0 14.242 3.035 9.043 7.971h8.02a1 1 0 1 1 0 2H8.029a.989.989 0 0 1-.67-.268 29.249 29.249 0 0 0-2.582 3.357H10a1 1 0 1 1 0 2H4.142a.98.98 0 0 1-.49-.146A28.824 28.824 0 0 0 2.165 18h5.693a1 1 0 1 1 0 2H2a.972.972 0 0 1-.514-.163 28.906 28.906 0 0 0-.875 3.222H14a1 1 0 1 1 0 2H.42c-.051 0-.094-.022-.143-.029A29.214 29.214 0 0 0 0 29c0 .678.032 1.349.078 2.016.026-.003.049-.016.076-.016h3.617z" fill="#cbb292"/><path d="M30.174 43.828C27.866 45.249 25.04 46 22 46s-5.866-.751-8.174-2.172A19.16 19.16 0 0 0 3.771 41h-1.17a28.907 28.907 0 0 0 2.423 4.314c.2-.142.45-.216.713-.18 1.963.27 3.803.926 5.469 1.952C14.301 48.992 18.033 50 22 50s7.699-1.008 10.795-2.914A14.16 14.16 0 0 1 40.229 45h12.259c.216 0 .405.083.568.199A28.906 28.906 0 0 0 55.398 41H40.23c-3.573 0-7.051.978-10.056 2.828z" fill="#fbd490"/><path d="M29.125 29.875C27.134 28.648 24.67 28 22 28s-5.134.648-7.125 1.875A21.165 21.165 0 0 1 3.771 33H.281A28.848 28.848 0 0 0 1.8 39.074.99.99 0 0 1 2.165 39H3.77c3.943 0 7.783 1.081 11.104 3.125C16.866 43.352 19.33 44 22 44s5.134-.648 7.125-1.875A21.166 21.166 0 0 1 40.23 39h15.604a.99.99 0 0 1 .365.074A28.833 28.833 0 0 0 57.718 33H40.23a21.166 21.166 0 0 1-11.105-3.125z" fill="#d6bfa5"/><circle cx="22" cy="26" r="19" fill="#d6bfa5"/><path d="M33.844 48.789C30.433 50.89 26.337 52 22 52s-8.433-1.11-11.844-3.211a11.916 11.916 0 0 0-3.638-1.474C11.836 53.835 19.931 58 29 58a28.857 28.857 0 0 0 14.692-4H34a1 1 0 1 1 0-2h11.146c.365 0 .669.205.844.496A29.143 29.143 0 0 0 51.729 47h-11.5c-2.277 0-4.485.619-6.385 1.789z" fill="#cbb292"/><circle cx="19" cy="23" r="12" fill="#e5c5a5"/><path d="M40.229 45c-2.647 0-5.218.721-7.435 2.086C29.699 48.992 25.967 50 22 50s-7.699-1.008-10.795-2.914a13.981 13.981 0 0 0-5.469-1.952.984.984 0 0 0-.713.18c.47.689.969 1.356 1.495 2.001a11.95 11.95 0 0 1 3.638 1.474C13.567 50.89 17.663 52 22 52s8.433-1.11 11.844-3.211A12.163 12.163 0 0 1 40.23 47h11.499c.463-.584.91-1.181 1.328-1.801a.98.98 0 0 0-.569-.199H40.229zM57.846 31H40.23c-3.573 0-7.052-.978-10.057-2.828C27.866 26.751 25.04 26 22 26s-5.866.751-8.174 2.172A19.16 19.16 0 0 1 3.771 31H.154c-.027 0-.05.013-.077.016.046.668.113 1.33.204 1.984H3.77c3.943 0 7.783-1.081 11.104-3.125C16.866 28.648 19.33 28 22 28s5.134.648 7.125 1.875A21.166 21.166 0 0 0 40.23 33h17.488c.09-.655.158-1.317.204-1.984-.026-.003-.049-.016-.076-.016z" fill="#af8066"/><path d="M40.23 39a21.166 21.166 0 0 0-11.105 3.125C27.134 43.352 24.67 44 22 44s-5.134-.648-7.125-1.875A21.165 21.165 0 0 0 3.771 39H2.165a.987.987 0 0 0-.365.074c.243.654.513 1.295.801 1.926h1.17c3.573 0 7.051.978 10.056 2.828C16.134 45.249 18.96 46 22 46s5.866-.751 8.174-2.172A19.163 19.163 0 0 1 40.23 41h15.169c.287-.631.558-1.272.801-1.926a.99.99 0 0 0-.365-.074H40.23zM45.146 52H34a1 1 0 1 0 0 2h9.692a29.065 29.065 0 0 0 2.297-1.504.984.984 0 0 0-.843-.496zM38 26a1 1 0 0 0 1 1h18.846c.027 0 .05-.013.077-.016A28.711 28.711 0 0 0 57.719 25H39a1 1 0 0 0-1 1zM26 20.053a1 1 0 0 0 1 1h29.592c.099 0 .19-.03.28-.057a28.187 28.187 0 0 0-.624-1.943H27a1 1 0 0 0-1 1zM14 25.06a1 1 0 1 0 0-2H.611a29.039 29.039 0 0 0-.334 1.971c.049.007.092.029.143.029H14zM47 14.06a1 1 0 0 0 1 1h5.858a.98.98 0 0 0 .49-.146 28.584 28.584 0 0 0-1.126-1.854H48a1 1 0 0 0-1 1zM10 15.06a1 1 0 1 0 0-2H4.777a29.502 29.502 0 0 0-1.126 1.854.97.97 0 0 0 .49.146H10zM7.858 20a1 1 0 1 0 0-2H2.165a28.996 28.996 0 0 0-.679 1.837A.972.972 0 0 0 2 20h5.858zM17.062 9.971a1 1 0 1 0 0-2h-8.02a28.952 28.952 0 0 0-1.683 1.732c.178.163.41.268.67.268h9.033z" fill="#af8066"/><path d="M41.393 10h-2.245c-.057 0-.074-.082-.02-.1a2.003 2.003 0 0 0 1.345-2.236C40.313 6.681 39.389 6 38.393 6H33.5a2 2 0 0 0-1.999 1.951.05.05 0 0 1-.049.049h-2.845c-.996 0-1.92.681-2.08 1.664a2.003 2.003 0 0 0 1.345 2.236c.054.018.037.1-.02.1h-3.245c-.996 0-1.92.681-2.08 1.664A2.001 2.001 0 0 0 24.5 16h10a2 2 0 0 0 1.999-1.951.05.05 0 0 1 .049-.049H41.5a2.001 2.001 0 0 0 1.973-2.336c-.16-.983-1.084-1.664-2.08-1.664zM22 41c-4.337 0-8-2.29-8-5s3.663-5 8-5 8 2.29 8 5-3.663 5-8 5z" fill="#fbd490"/><circle cx="4" cy="4" r="1" fill="#f3d55b"/><circle cx="18" cy="19" r="1" fill="#f3d55b"/><circle cx="21" cy="23" r="1" fill="#f3d55b"/><circle cx="40" cy="36" r="1" fill="#f3d55b"/><circle cx="7" cy="55" r="1" fill="#f3d55b"/><circle cx="2" cy="48" r="1" fill="#f3d55b"/><circle cx="13" cy="1" r="1" fill="#f3d55b"/><circle cx="47" cy="11" r="1" fill="#f3d55b"/><circle cx="55" cy="54" r="1" fill="#f3d55b"/></svg>