<svg xmlns="http://www.w3.org/2000/svg" viewBox="0 0 58 58"><path d="M41.618 29a1 1 0 0 1 1-1h15.357a28.888 28.888 0 0 0-1.775-9.074.99.99 0 0 1-.365.074H31.263a1 1 0 0 1 0-2h24.136a28.88 28.88 0 0 0-2.554-4.498A.985.985 0 0 1 52 13H42a1 1 0 0 1 0-2h9.729C46.417 4.301 38.213 0 29 0 17.265 0 7.166 6.974 2.601 17h22.06a1 1 0 0 1 0 2H2.166a.982.982 0 0 1-.365-.074A28.888 28.888 0 0 0 .025 28h8.712a1 1 0 0 1 0 2H.025c.121 3.563.88 6.962 2.174 10.087A.983.983 0 0 1 2.601 40h20.342a1 1 0 0 1 0 2H3.079a29.112 29.112 0 0 0 7.493 9.392.979.979 0 0 1 .773-.392h21.461a1 1 0 0 1 0 2H12.719c4.642 3.155 10.245 5 16.281 5s11.639-1.845 16.281-5h-6.077a1 1 0 0 1 0-2h7.452c.319 0 .591.159.774.392A29.109 29.109 0 0 0 54.922 42H29.174a1 1 0 0 1 0-2h26.225c.143 0 .278.032.401.086A28.868 28.868 0 0 0 57.974 30H42.618a1 1 0 0 1-1-1z" fill="#c68630"/><circle cx="23.5" cy="25.5" r="20.5" fill="#dc9628"/><circle cx="21" cy="24" r="12" fill="#eeaf4b"/><path d="M29.174 40a1 1 0 0 0 0 2h25.747c.315-.626.61-1.263.879-1.914a.99.99 0 0 0-.401-.086H29.174z" fill="#fac176"/><path d="M23.943 41a1 1 0 0 0-1-1H2.601a.978.978 0 0 0-.401.087c.269.65.564 1.287.879 1.913h19.864a1 1 0 0 0 1-1z" fill="#f18d46"/><path d="M9.737 29a1 1 0 0 0-1-1H.025c-.011.333-.025.665-.025 1s.014.667.025 1h8.712a1 1 0 0 0 1-1z" fill="#f3d55b"/><path d="M41 12a1 1 0 0 0 1 1h10a.985.985 0 0 0 .845-.498A29.205 29.205 0 0 0 51.728 11H42a1 1 0 0 0-1 1z" fill="#f09372"/><path d="M57.975 28H42.618a1 1 0 0 0 0 2h15.357c.011-.333.025-.665.025-1s-.014-.667-.025-1z" fill="#f29c1f"/><path d="M33.806 52a1 1 0 0 0-1-1H11.345a.982.982 0 0 0-.774.392c.69.568 1.407 1.104 2.148 1.608h20.087a1 1 0 0 0 1-1z" fill="#fac176"/><path d="M46.655 51h-7.452a1 1 0 0 0 0 2h6.077a29.14 29.14 0 0 0 2.148-1.608.977.977 0 0 0-.773-.392z" fill="#f18d46"/><path d="M30.263 18a1 1 0 0 0 1 1h24.572a.99.99 0 0 0 .365-.074A28.579 28.579 0 0 0 55.399 17H31.263a1 1 0 0 0-1 1z" fill="#fac176"/><path d="M24.661 19a1 1 0 0 0 0-2H2.601a29.334 29.334 0 0 0-.801 1.926.992.992 0 0 0 .366.074h22.495z" fill="#f3d55b"/><g fill="#f3d55b"><circle cx="4" cy="4" r="1"/><circle cx="7" cy="55" r="1"/><circle cx="2" cy="48" r="1"/><circle cx="13" cy="1" r="1"/><circle cx="53" cy="4" r="1"/></g><path d="M35.625 28H15.349a1 1 0 0 0 0 2h20.277a1 1 0 1 0-.001-2z" fill="#f3d55b"/><path d="M42 34H21.723a1 1 0 0 0 0 2H42a1 1 0 0 0 0-2z" fill="#f0c419"/><path d="M36.277 47H16a1 1 0 0 1 0-2h20.277a1 1 0 0 1 0 2z" fill="#fac176"/><path d="M34 24H24a1 1 0 0 1 0-2h10a1 1 0 0 1 0 2z" fill="#f3d55b"/><path d="M15 22H5a1 1 0 0 0 0 2h10a1 1 0 0 0 0-2z" fill="#f0c419"/><path d="M33 13H23a1 1 0 0 1 0-2h10a1 1 0 0 1 0 2zM26.623 7H16.206a1 1 0 0 1 0-2h10.417a1 1 0 0 1 0 2zM41.9 7h-8.333a1 1 0 0 1 0-2H41.9a1 1 0 0 1 0 2z" fill="#f3d55b"/></svg>