<svg xmlns="http://www.w3.org/2000/svg" viewBox="0 0 57 57"><circle cx="27" cy="34" r="23" fill="#a5a5a4"/><path fill="none" stroke="#8697cb" stroke-width="2" stroke-miterlimit="10" d="M27 11V1"/><path fill="#48a0dc" d="M28 1h8v6h-8z"/><circle cx="36.5" cy="31.5" r="5.5" fill="#d1d4d1"/><path d="M5.548 25.705A6.48 6.48 0 0 0 10.5 28a6.496 6.496 0 1 0 2.706-12.405 23.067 23.067 0 0 0-7.658 10.11z" fill="#5e5f62"/><path d="M18.5 45a6.499 6.499 0 0 0-6.497 6.431 22.908 22.908 0 0 0 10.561 5.138A6.486 6.486 0 0 0 25 51.5a6.5 6.5 0 0 0-6.5-6.5z" fill="#bdc3c7"/><circle cx="9" cy="7" r="1" fill="#f18d46"/><circle cx="2" cy="50" r="1" fill="#f18d46"/><circle cx="50" cy="55" r="1" fill="#f18d46"/><g fill="#f3d55b"><circle cx="19" cy="35" r="1"/><circle cx="26" cy="28" r="1"/><circle cx="12" cy="41" r="1"/><circle cx="8" cy="34" r="1"/><circle cx="31" cy="49" r="1"/><circle cx="37" cy="21" r="1"/><circle cx="21" cy="16" r="1"/><circle cx="28" cy="19" r="1"/><circle cx="39" cy="46" r="1"/></g><path d="M55 5h-1.586L51 2.586V1a1 1 0 1 0-2 0v1.586L46.586 5H45a1 1 0 1 0 0 2h1.586L49 9.414V11a1 1 0 1 0 2 0V9.414L53.414 7H55a1 1 0 1 0 0-2z" fill="#f3d55b"/></svg>