<svg xmlns="http://www.w3.org/2000/svg" viewBox="0 0 56 56"><circle cx="27.5" cy="31" r="24" fill="#8697cb"/><circle cx="25" cy="29.5" r="18.5" fill="#92a8dd"/><circle cx="20.5" cy="27" r="11" fill="#a4b9ed"/><path d="M54.5 5h-1.586L50.5 2.586V1a1 1 0 1 0-2 0v1.586L46.086 5H44.5a1 1 0 1 0 0 2h1.586L48.5 9.414V11a1 1 0 1 0 2 0V9.414L52.914 7H54.5a1 1 0 1 0 0-2z" fill="#f3d55b"/><circle cx="6.5" cy="6" r="1" fill="#f3d55b"/><circle cx="53.5" cy="21" r="1" fill="#f3d55b"/><circle cx="41.5" cy="3" r="1" fill="#f3d55b"/><circle cx="32.5" cy="13" r="1" fill="#f3d55b"/><circle cx="35.5" cy="46" r="1" fill="#f3d55b"/><circle cx="3.5" cy="55" r="1" fill="#f3d55b"/><circle cx="1.5" cy="44" r="1" fill="#f3d55b"/><path d="M33 23.444c-2.514 0-3.993-1.59-4.451-3.473-.256-1.053-1.444-1.63-2.395-1.112a6.986 6.986 0 0 0-3.65 5.912c-.124 3.834 3.039 7.164 6.875 7.229a7.001 7.001 0 0 0 7.119-7.182c-.028-1.073-1.086-1.853-2.118-1.559a5.018 5.018 0 0 1-1.38.185zM8.576 16.249A4.49 4.49 0 0 0 13 20a4.5 4.5 0 0 0 4.5-4.5 4.494 4.494 0 0 0-3.464-4.369 24.117 24.117 0 0 0-5.46 5.118z" fill="#556080"/><path d="M45.008 22.186a2.999 2.999 0 0 1-4.015-1.372M27.5 11c0 1.658-1.342 3-3 3M23.5 36c0 1.658-1.342 3-3 3M40.188 31.54a2.997 2.997 0 0 1 1.624 3.919M10.647 31a2.997 2.997 0 0 1 1.624 3.919" fill="none" stroke="#556080" stroke-width="2" stroke-linecap="round" stroke-miterlimit="10"/></svg>