<svg xmlns="http://www.w3.org/2000/svg" viewBox="0 0 56.625 56.625"><path d="M54.5 49.625h-1.586L50.5 47.211v-1.586a1 1 0 0 0-2 0v1.586l-2.414 2.414H44.5a1 1 0 0 0 0 2h1.586l2.414 2.414v1.586a1 1 0 0 0 2 0v-1.586l2.414-2.414H54.5a1 1 0 0 0 0-2z" fill="#f3d55b"/><circle cx="28.5" cy="27.625" r="23" fill="#4482c3"/><circle cx="2.125" cy="2.625" r="1" fill="#f3d55b"/><circle cx="4.125" cy="50.628" r="1" fill="#f3d55b"/><circle cx="20.625" cy="54.875" r="1" fill="#f3d55b"/><circle cx="14.625" cy="30.625" r="1" fill="#f3d55b"/><circle cx="44.908" cy="1" r="1" fill="#f3d55b"/><circle cx="54" cy="43" r="1" fill="#f3d55b"/><path d="M29.882 25.735c.147.072.361.239.453.374.698 1.021.296 2.517.988 2.883.548.29.859.881.625 1.454-.955 2.343-.129 5.024 2.092 6.863 1.563 1.294.262 4.294-1.053 6.65-.47.842.368 1.816 1.277 1.492 1.437-.511 2.627-1.252 4.004-2.437 1.997-1.718 2.429-3.589 4.409-5.047a.126.126 0 0 0 .047-.062c.506-1.483 2.078-4.722.492-5.547-1.481-.769-2.035-2.997-3.48-4.515-.166-.174-.402-.261-.641-.292-1.771-.228-2.569-1.576-3.76-.68-.893.671-1.896.262-2.208-.81-.102-.35-.28-.662-.923-.86-.488-.151-.726-.703-.55-1.183l.008-.021c.235-.641-1.089-.543-1.763-.431-.189.031.452-.731.241-.606-.828.489-1.856-.355-1.812-1.315.045-.974.227-.928 1.897-1.12 1.798-.837 2.668-.227 2.61 1.829 1.111.164 1.5-.327 1.165-1.473a1.126 1.126 0 0 1 .193-.986c2.048-2.664 3.758-3.825 6.893-4.901.511-.175.797-.718.655-1.239-.503-1.844-1.283-4.753-2.614-4.963-.341-.054-.728-.377-.866-.693-.468-1.073-.783-1.527-1.667-1.787a1.058 1.058 0 0 0-1.36 1.002c-.012 2.149-.005 4.002-2.466 1.548-2.036-2.03-2.626-3.135-1.502-3.665l-.049-.414a22.887 22.887 0 0 0-13.326 2.435c-.073.038-.098.134-.059.207 1.561 2.87 1.877 4.378 1.705 7.726-.01.185.023.369.101.537 1.356 2.922 3.101 7.882 6.081 9.024 1.451.559 2.79.35 4.163 1.023z" fill="#a4e869"/></svg>