<svg xmlns="http://www.w3.org/2000/svg" viewBox="0 0 57.615 57.615"><circle cx="29.5" cy="28.115" r="20.5" fill="#f9c38a"/><circle cx="26.5" cy="25.115" r="14.5" fill="#ffd199"/><circle cx="23.5" cy="21.115" r="7.5" fill="#ffd8ae"/><path d="M12 7.615h-1.586L8 5.201V3.615a1 1 0 1 0-2 0v1.586L3.586 7.615H2a1 1 0 1 0 0 2h1.586L6 12.029v1.586a1 1 0 1 0 2 0v-1.586l2.414-2.414H12a1 1 0 1 0 0-2z" fill="#f3d55b"/><circle cx="50" cy="54.615" r="1" fill="#f3d55b"/><circle cx="55" cy="34.615" r="1" fill="#f3d55b"/><circle cx="5" cy="23.615" r="1" fill="#f3d55b"/><circle cx="24" cy="24.615" r="1" fill="#f3d55b"/><circle cx="31" cy="55.615" r="1" fill="#f3d55b"/><path d="M34.965 8.928l-.004.005c.07.026.004-.005.004-.005zM34.965 8.928zM57.395.221c-1.28-1.28-7.9 3.098-16.755 10.712.579.378 1.134.788 1.67 1.22 5.919-5.043 10.185-8.06 12.378-9.225-2.024 3.809-9.6 13.843-23.759 28.001S6.737 52.664 2.928 54.688c1.262-2.375 4.684-7.171 10.512-13.877a20.712 20.712 0 0 1-1.204-1.672C3.826 48.74-1.13 56.044.221 57.395c1.953 1.953 16.334-9.263 32.122-25.051C48.131 16.555 59.347 2.173 57.395.221z" fill="#f9eab0"/></svg>