<?xml version="1.0" encoding="UTF-8" standalone="no"?>
<svg width="60px" height="60px" viewBox="0 0 60 60" version="1.1" xmlns="http://www.w3.org/2000/svg" xmlns:xlink="http://www.w3.org/1999/xlink">
    <!-- Generator: Sketch 39.1 (31720) - http://www.bohemiancoding.com/sketch -->
    <title>space-ship-1</title>
    <desc>Created with Sketch.</desc>
    <defs>
        <path d="M50.521,45.042 L42.521,45.042 L41.435,39.609 C40.834,36.601 40.907,33.498 41.651,30.522 L41.651,30.522 C42.227,28.219 43.194,26.031 44.512,24.056 L45.482,22.601 C45.977,21.859 47.067,21.859 47.562,22.601 L48.532,24.056 C49.849,26.032 50.817,28.219 51.393,30.522 L51.393,30.522 C52.137,33.497 52.211,36.601 51.609,39.609 L50.521,45.042 L50.521,45.042 Z" id="path-1"></path>
        <filter x="-50%" y="-50%" width="200%" height="200%" filterUnits="objectBoundingBox" id="filter-2">
            <feOffset dx="0" dy="2" in="SourceAlpha" result="shadowOffsetOuter1"></feOffset>
            <feGaussianBlur stdDeviation="2" in="shadowOffsetOuter1" result="shadowBlurOuter1"></feGaussianBlur>
            <feColorMatrix values="0 0 0 0 0   0 0 0 0 0   0 0 0 0 0  0 0 0 0.5 0" type="matrix" in="shadowBlurOuter1"></feColorMatrix>
        </filter>
        <path d="M9.521,45.042 L1.521,45.042 L0.435,39.609 C-0.166,36.601 -0.093,33.498 0.651,30.522 L0.651,30.522 C1.227,28.219 2.194,26.031 3.512,24.056 L4.482,22.601 C4.977,21.859 6.067,21.859 6.562,22.601 L7.532,24.056 C8.849,26.032 9.817,28.219 10.393,30.522 L10.393,30.522 C11.137,33.497 11.211,36.601 10.609,39.609 L9.521,45.042 L9.521,45.042 Z" id="path-3"></path>
        <filter x="-50%" y="-50%" width="200%" height="200%" filterUnits="objectBoundingBox" id="filter-4">
            <feOffset dx="0" dy="2" in="SourceAlpha" result="shadowOffsetOuter1"></feOffset>
            <feGaussianBlur stdDeviation="2" in="shadowOffsetOuter1" result="shadowBlurOuter1"></feGaussianBlur>
            <feColorMatrix values="0 0 0 0 0   0 0 0 0 0   0 0 0 0 0  0 0 0 0.5 0" type="matrix" in="shadowBlurOuter1"></feColorMatrix>
        </filter>
        <path d="M28.299,2.267 L26.032,0 L23.765,2.267 C13.803,12.229 12.093,27.318 18.636,39.04 C18.641,39.049 18.646,39.058 18.651,39.066 C20.143,41.706 21.032,44.646 21.032,47.678 L21.032,49.041 L31.032,49.041 L31.032,47.678 C31.032,44.645 31.923,41.706 33.413,39.065 C33.417,39.057 33.422,39.049 33.426,39.042 C39.971,27.32 38.261,12.229 28.299,2.267 L28.299,2.267 Z" id="path-5"></path>
        <filter x="-50%" y="-50%" width="200%" height="200%" filterUnits="objectBoundingBox" id="filter-6">
            <feOffset dx="0" dy="2" in="SourceAlpha" result="shadowOffsetOuter1"></feOffset>
            <feGaussianBlur stdDeviation="2.5" in="shadowOffsetOuter1" result="shadowBlurOuter1"></feGaussianBlur>
            <feColorMatrix values="0 0 0 0 0   0 0 0 0 0   0 0 0 0 0  0 0 0 0.5 0" type="matrix" in="shadowBlurOuter1"></feColorMatrix>
        </filter>
    </defs>
    <g id="Page-1" stroke="none" stroke-width="1" fill="none" fill-rule="evenodd">
        <g id="space-ship-1" transform="translate(29.500000, 28.500000) rotate(180.000000) translate(-29.500000, -28.500000) translate(3.000000, 0.000000)">
            <g id="Group">
                <g id="Shape">
                    <use fill="black" fill-opacity="1" filter="url(#filter-2)" xlink:href="#path-1"></use>
                    <use fill="#E6E6E6" fill-rule="evenodd" xlink:href="#path-1"></use>
                </g>
                <g id="Shape">
                    <use fill="black" fill-opacity="1" filter="url(#filter-4)" xlink:href="#path-3"></use>
                    <use fill="#E6E6E6" fill-rule="evenodd" xlink:href="#path-3"></use>
                </g>
                <g id="Shape">
                    <use fill="black" fill-opacity="1" filter="url(#filter-6)" xlink:href="#path-5"></use>
                    <use fill="#E6E6E6" fill-rule="evenodd" xlink:href="#path-5"></use>
                </g>
                <path d="M3.032,48.042 L3.032,50.042" id="Shape" stroke="#F29C1F" stroke-width="2"></path>
                <path d="M8.032,48.042 L8.032,50.042" id="Shape" stroke="#F29C1F" stroke-width="2"></path>
                <path d="M44.032,48.042 L44.032,50.042" id="Shape" stroke="#F29C1F" stroke-width="2"></path>
                <path d="M49.032,48.042 L49.032,50.042" id="Shape" stroke="#F29C1F" stroke-width="2"></path>
                <g transform="translate(10.000000, 30.000000)" id="Shape" fill="#A5A5A4">
                    <path d="M26.584,0.637 C26.09,2.897 25.348,5.111 24.341,7.235 L31.905,11.963 L31.434,9.61 C31.03,7.589 30.938,5.526 31.142,3.486 L26.584,0.637 L26.584,0.637 Z"></path>
                    <path d="M5.48,0.637 L0.901,3.499 C1.103,5.534 1.011,7.593 0.608,9.609 L0.134,11.978 L7.724,7.234 C6.716,5.111 5.973,2.897 5.48,0.637 L5.48,0.637 Z"></path>
                </g>
                <circle id="Oval" fill="#556080" cx="26.032" cy="14.042" r="5"></circle>
                <circle id="Oval" fill="#8697CB" cx="26.032" cy="27.042" r="3"></circle>
                <circle id="Oval" fill="#8697CB" cx="26.032" cy="38.042" r="3"></circle>
                <polygon id="Shape" fill="#38454F" points="32.032 56.042 20.032 56.042 21.032 49.042 31.032 49.042"></polygon>
                <path d="M24.032,54.042 C23.48,54.042 23.032,53.594 23.032,53.042 L23.032,52.042 C23.032,51.49 23.48,51.042 24.032,51.042 C24.584,51.042 25.032,51.49 25.032,52.042 L25.032,53.042 C25.032,53.594 24.584,54.042 24.032,54.042 L24.032,54.042 Z" id="Shape" fill="#546A79"></path>
                <path d="M28.032,54.042 C27.48,54.042 27.032,53.594 27.032,53.042 L27.032,52.042 C27.032,51.49 27.48,51.042 28.032,51.042 C28.584,51.042 29.032,51.49 29.032,52.042 L29.032,53.042 C29.032,53.594 28.584,54.042 28.032,54.042 L28.032,54.042 Z" id="Shape" fill="#546A79"></path>
            </g>
        </g>
    </g>
</svg>