<svg width="58" height="71" viewBox="0 0 58 71" xmlns="http://www.w3.org/2000/svg"><title>Artboard</title><g transform="rotate(180 27.5 34)" fill="none" fill-rule="evenodd"><path d="M50.521 45.042h-8l-1.086-5.433a20.722 20.722 0 0 1 .216-9.087 20.694 20.694 0 0 1 2.861-6.466l.97-1.455a1.25 1.25 0 0 1 2.08 0l.97 1.455a20.707 20.707 0 0 1 3.077 15.553l-1.088 5.433zM9.521 45.042h-8L.435 39.609a20.722 20.722 0 0 1 .216-9.087 20.694 20.694 0 0 1 2.861-6.466l.97-1.455a1.25 1.25 0 0 1 2.08 0l.97 1.455a20.707 20.707 0 0 1 3.077 15.553l-1.088 5.433zM28.299 2.267L26.032 0l-2.267 2.267c-9.962 9.962-11.672 25.051-5.129 36.773a.6.6 0 0 0 .015.026c1.492 2.64 2.381 5.58 2.381 8.612v1.363h10v-1.363c0-3.033.891-5.972 2.381-8.613l.013-.023c6.545-11.722 4.835-26.813-5.127-36.775z" fill="#E6E6E6"/><g stroke="#F29C1F" stroke-width="2"><path d="M3 46.027v6.363M8 46.027v6.363M44 46.027v6.363M49 46.027v6.363"/></g><g opacity=".507" stroke="#F29C1F" stroke-width="2"><path d="M3 54.02v4.545M8 54.02v4.545M44 54.02v4.545M49 54.02v4.545"/></g><g opacity=".3" stroke="#F29C1F" stroke-width="2"><path d="M3 60.011v2.728M8 60.011v2.728M44 60.011v2.728M49 60.011v2.728"/></g><g fill="#A5A5A4"><path d="M36.584 30.637a30.673 30.673 0 0 1-2.243 6.598l7.564 4.728-.471-2.353a20.715 20.715 0 0 1-.292-6.124l-4.558-2.849zM15.48 30.637l-4.579 2.862c.202 2.035.11 4.094-.293 6.11l-.474 2.369 7.59-4.744a30.54 30.54 0 0 1-2.244-6.597z"/></g><circle fill="#556080" cx="26.032" cy="14.042" r="5"/><circle fill="#8697CB" cx="26.032" cy="27.042" r="3"/><circle fill="#8697CB" cx="26.032" cy="38.042" r="3"/><path fill="#38454F" d="M32.032 56.042h-12l1-7h10z"/><path d="M24.032 54.042a1 1 0 0 1-1-1v-1a1 1 0 0 1 2 0v1a1 1 0 0 1-1 1zM28.032 54.042a1 1 0 0 1-1-1v-1a1 1 0 0 1 2 0v1a1 1 0 0 1-1 1z" fill="#546A79"/></g></svg>