<svg xmlns="http://www.w3.org/2000/svg" viewBox="0 0 60 60"><circle cx="30" cy="30" r="22.101" fill="#f3d55b"/><circle cx="30" cy="30" r="17.101" fill="#f0c419"/><circle cx="30" cy="30" r="10" fill="#eda71b"/><g fill="#f0c419"><path d="M30 8a1 1 0 0 0-1 1v2a1 1 0 1 0 2 0V9a1 1 0 0 0-1-1zM30 48a1 1 0 0 0-1 1v2a1 1 0 1 0 2 0v-2a1 1 0 0 0-1-1zM51 29h-2a1 1 0 1 0 0 2h2a1 1 0 1 0 0-2zM12 30a1 1 0 0 0-1-1H9a1 1 0 1 0 0 2h2a1 1 0 0 0 1-1zM44.143 14.443l-1.415 1.414a1 1 0 0 0 1.414 1.416l1.415-1.414a1 1 0 0 0-1.414-1.416zM15.858 42.728l-1.415 1.414a1 1 0 0 0 1.414 1.416l1.415-1.414a1 1 0 0 0-1.414-1.416zM44.142 42.728a1 1 0 0 0-1.414 1.415l1.415 1.414a.997.997 0 0 0 1.414-.001 1 1 0 0 0 0-1.415l-1.415-1.413zM15.857 14.443a1 1 0 0 0-1.414 1.415l1.415 1.414a.997.997 0 0 0 1.414-.001 1 1 0 0 0 0-1.415l-1.415-1.413zM38.596 9.749a1.002 1.002 0 0 0-1.312.53l-.781 1.841a1 1 0 1 0 1.842.781l.781-1.841a1 1 0 0 0-.53-1.311zM22.967 46.569a1.001 1.001 0 0 0-1.312.53l-.781 1.841a1 1 0 1 0 1.842.781l.781-1.841a1 1 0 0 0-.53-1.311zM49.722 37.285l-1.842-.782a1 1 0 0 0-.782 1.841l1.842.782a1.002 1.002 0 0 0 1.312-.53 1 1 0 0 0-.53-1.311zM12.901 21.656l-1.842-.782a1 1 0 1 0-.782 1.841l1.842.782a1.002 1.002 0 0 0 1.312-.53.999.999 0 0 0-.53-1.311zM47.616 23.723c.125 0 .252-.024.375-.073l1.854-.75a1 1 0 0 0-.75-1.855l-1.854.75a1 1 0 0 0 .375 1.928zM12.009 36.03l-1.854.75a1 1 0 0 0 .75 1.855l1.854-.75a1 1 0 0 0-.75-1.855zM38.044 47.081a1 1 0 0 0-1.854.75l.75 1.854a.999.999 0 1 0 1.854-.75l-.75-1.854zM23.06 9.994a1 1 0 0 0-1.854.75l.75 1.854a.999.999 0 1 0 1.854-.75l-.75-1.854z"/></g><g fill="#eda71b"><path d="M30 14a.94.94 0 0 0-.941.941v1.882a.94.94 0 1 0 1.882 0v-1.882A.94.94 0 0 0 30 14zM30 42.235a.94.94 0 0 0-.941.941v1.882a.94.94 0 1 0 1.882.001v-1.882a.941.941 0 0 0-.941-.942zM45.059 29.059h-1.882a.94.94 0 1 0 0 1.882h1.882a.94.94 0 1 0 0-1.882zM17.765 30a.94.94 0 0 0-.941-.941h-1.882a.94.94 0 1 0-.001 1.882h1.882a.94.94 0 0 0 .942-.941zM39.317 21.624a.935.935 0 0 0 .665-.276l1.331-1.331a.94.94 0 1 0-1.331-1.331l-1.331 1.331a.94.94 0 0 0 .666 1.607zM20.017 38.652l-1.331 1.331a.94.94 0 1 0 1.33 1.331l1.331-1.331a.94.94 0 1 0-1.33-1.331zM39.983 38.652a.94.94 0 1 0-1.331 1.331l1.331 1.331a.938.938 0 0 0 1.33 0 .94.94 0 0 0 0-1.331l-1.33-1.331zM20.017 18.687a.94.94 0 1 0-1.331 1.331l1.331 1.331a.938.938 0 0 0 1.33 0 .94.94 0 0 0 0-1.331l-1.33-1.331zM36.252 15.272a.941.941 0 0 0-1.234.499l-.735 1.733a.941.941 0 1 0 1.734.735l.735-1.733a.942.942 0 0 0-.5-1.234zM25.219 41.263a.941.941 0 0 0-1.234.499l-.735 1.733a.941.941 0 1 0 1.734.735l.735-1.733a.942.942 0 0 0-.5-1.234zM44.23 35.017l-1.733-.735a.942.942 0 0 0-.735 1.733l1.733.735a.944.944 0 0 0 1.235-.499.942.942 0 0 0-.5-1.234zM15.77 24.983l1.733.735a.944.944 0 0 0 1.235-.499.94.94 0 0 0-.499-1.234l-1.733-.735a.942.942 0 0 0-.736 1.733zM41.345 25.266a.94.94 0 0 0 1.225.52l1.745-.705a.94.94 0 0 0-.706-1.745l-1.745.705a.94.94 0 0 0-.519 1.225zM18.655 34.432a.94.94 0 0 0-1.225-.52l-1.745.705a.94.94 0 0 0 .706 1.745l1.745-.705a.94.94 0 0 0 .519-1.225zM35.808 41.713a.942.942 0 1 0-1.744.706l.706 1.745a.941.941 0 1 0 1.744-.706l-.706-1.745zM25.231 15.534a.941.941 0 0 0-1.744.706l.706 1.745a.941.941 0 1 0 1.744-.706l-.706-1.745z"/></g><g fill="#f3d55b"><path d="M30 0a1 1 0 0 0-1 1v5a1 1 0 1 0 2 0V1a1 1 0 0 0-1-1zM30 53a1 1 0 0 0-1 1v5a1 1 0 1 0 2 0v-5a1 1 0 0 0-1-1zM59 29h-5a1 1 0 1 0 0 2h5a1 1 0 1 0 0-2zM7 30a1 1 0 0 0-1-1H1a1 1 0 1 0 0 2h5a1 1 0 0 0 1-1zM46.971 14.029a.997.997 0 0 0 .707-.293l3.535-3.535a.999.999 0 1 0-1.414-1.414l-3.535 3.535a.999.999 0 0 0 .707 1.707zM12.322 46.264l-3.535 3.535a.999.999 0 1 0 1.414 1.414l3.535-3.535a.999.999 0 1 0-1.414-1.414zM47.678 46.264a.999.999 0 1 0-1.414 1.414l3.535 3.535a.997.997 0 0 0 1.414 0 .999.999 0 0 0 0-1.414l-3.535-3.535zM10.201 8.787a.999.999 0 1 0-1.414 1.414l3.535 3.535a.997.997 0 0 0 1.414 0 .999.999 0 0 0 0-1.414l-3.535-3.535zM41.722 2.385a1 1 0 0 0-1.312.53l-1.953 4.603a1 1 0 1 0 1.842.781l1.953-4.603a1 1 0 0 0-.53-1.311zM21.013 51.172a1.001 1.001 0 0 0-1.312.53l-1.953 4.603a1 1 0 1 0 1.842.781l1.953-4.603a1 1 0 0 0-.53-1.311zM57.085 40.411l-4.603-1.954a1 1 0 1 0-.782 1.841l4.603 1.954a.999.999 0 0 0 1.312-.53.999.999 0 0 0-.53-1.311zM2.915 19.589l4.603 1.954a.999.999 0 0 0 1.312-.53 1 1 0 0 0-.53-1.311l-4.603-1.954a1.004 1.004 0 0 0-1.312.53.999.999 0 0 0 .53 1.311zM51.325 21.224a.998.998 0 0 0 1.302.553l4.637-1.873a1 1 0 0 0-.75-1.855l-4.637 1.873a1 1 0 0 0-.552 1.302zM8.675 38.456a1.002 1.002 0 0 0-1.302-.553l-4.637 1.873a1 1 0 0 0 .75 1.855l4.637-1.873a1 1 0 0 0 .552-1.302zM39.917 51.717a1 1 0 0 0-1.854.749l1.873 4.636a.998.998 0 0 0 1.302.553 1 1 0 0 0 .552-1.302l-1.873-4.636zM20.063 2.577a1 1 0 1 0-1.854.749l1.873 4.636a.998.998 0 0 0 1.302.553 1 1 0 0 0 .552-1.302l-1.873-4.636z"/></g></svg>