<svg xmlns="http://www.w3.org/2000/svg" viewBox="0 0 59.519 59.519"><circle cx="30.26" cy="29.561" r="23" fill="#9fbdc2"/><circle cx="26.016" cy="27.804" r="18.242" fill="#9fcacc"/><circle cx="23.031" cy="26.307" r="14.739" fill="#add7db"/><path d="M53.26 51.561h-3l-1-1v-3a1 1 0 0 0-2 0v3l-1 1h-3a1 1 0 0 0 0 2h3l1 1v3a1 1 0 0 0 2 0v-3l1-1h3a1 1 0 0 0 0-2z" fill="#f3d55b"/><circle cx="5.26" cy="4.561" r="1" fill="#f3d55b"/><circle cx="8.26" cy="55.561" r="1" fill="#f3d55b"/><circle cx="3.26" cy="48.561" r="1" fill="#ecf0f1"/><circle cx="14.26" cy="1.561" r="1" fill="#f3d55b"/><circle cx="54.26" cy="4.561" r="1" fill="#f3d55b"/><circle cx="56.26" cy="52.563" r="1" fill="#f3d55b"/><circle cx="44.76" cy="39.936" r="1" fill="#f3d55b"/><circle cx="14.26" cy="26.311" r="1" fill="#f3d55b"/><path d="M29.786 52.553c-1.773 4.055-3.168 5.039-3.723 4.961-.648-.086-2.02-1.896-2.569-8.123-.487-5.521-.197-12.75.817-20.358 2.258-16.939 6.916-27.293 9.151-27.028.519.069 1.547 1.259 2.205 5.201.679.163 1.344.358 1.995.579a.98.98 0 0 0 .051-.465c-.71-4.647-2.014-7.034-3.987-7.297-5.457-.721-9.805 16.793-11.398 28.746-1.033 7.75-1.326 15.136-.827 20.798.554 6.283 2 9.624 4.297 9.93.117.016.233.023.349.023 1.917 0 3.757-2.128 5.611-6.485a.978.978 0 0 0 .054-.527 23.93 23.93 0 0 1-2.026.045z" fill="#ecf0f1"/></svg>