<svg xmlns="http://www.w3.org/2000/svg" viewBox="0 0 56 56"><circle cx="27" cy="30.5" r="24" fill="#d75a4a"/><path d="M55 5.5h-1.586L51 3.086V1.5a1 1 0 1 0-2 0v1.586L46.586 5.5H45a1 1 0 1 0 0 2h1.586L49 9.914V11.5a1 1 0 1 0 2 0V9.914L53.415 7.5H55a1 1 0 1 0 0-2z" fill="#f3d55b"/><circle cx="6" cy="9.5" r="1" fill="#f3d55b"/><circle cx="25" cy="12.5" r="1" fill="#f3d55b"/><circle cx="53" cy="17.5" r="1" fill="#f3d55b"/><circle cx="36.001" cy="5.5" r="1" fill="#f3d55b"/><circle cx="35" cy="45.5" r="1" fill="#f3d55b"/><circle cx="3" cy="54.5" r="1" fill="#f3d55b"/><circle cx="1" cy="43.5" r="1" fill="#f3d55b"/><path d="M48.971 20.841a24.015 24.015 0 0 0-3.597-5.776C38.436 16.169 24 18.5 24 18.5l24.971 2.341zM48.171 41.809a23.844 23.844 0 0 0 2.212-5.907L18 39.5s19.048 1.42 30.171 2.309zM3.362 26.371A24.108 24.108 0 0 0 3 30.5c0 .544.025 1.082.06 1.617L24 29.5s-12.628-1.952-20.638-3.129z" fill="#e57e25"/><circle cx="44" cy="54.5" r="1" fill="#f3d55b"/><circle cx="53" cy="42.5" r="1" fill="#f3d55b"/><circle cx="1" cy="4.5" r="1" fill="#f3d55b"/><circle cx="12" cy="2.5" r="1" fill="#f3d55b"/></svg>